<svg width="208" height="35" viewBox="0 0 208 35" fill="none" xmlns="http://www.w3.org/2000/svg">
<path d="M0.46957 1.584H4.78957V27H0.46957V1.584ZM11.7663 12.852H7.59025V8.532H11.7663V5.832L16.0503 2.844L16.0863 2.88V8.532H20.8743V12.852H16.0863V27H11.7663V12.852ZM27.6926 27.576C25.6046 27.576 23.9246 27.036 22.6526 25.956C21.4046 24.876 20.7806 23.472 20.7806 21.744V21.636H25.4966V21.888C25.4966 22.464 25.7006 22.944 26.1086 23.328C26.5406 23.712 27.0686 23.904 27.6926 23.904C28.3166 23.904 28.8326 23.712 29.2406 23.328C29.6486 22.944 29.8526 22.464 29.8526 21.888C29.8526 21.288 29.6486 20.796 29.2406 20.412C28.8326 20.028 28.3166 19.836 27.6926 19.836C26.3486 19.836 25.1726 19.572 24.1646 19.044C23.1566 18.492 22.3766 17.772 21.8246 16.884C21.2726 15.972 20.9966 14.988 20.9966 13.932C20.9966 12.852 21.2606 11.856 21.7886 10.944C22.3406 10.032 23.1206 9.312 24.1286 8.784C25.1606 8.256 26.3486 7.992 27.6926 7.992C28.9646 7.992 30.0926 8.244 31.0766 8.748C32.0846 9.228 32.8646 9.912 33.4166 10.8C33.9686 11.688 34.2446 12.696 34.2446 13.824V13.932H29.9246V13.644C29.9246 13.068 29.7086 12.588 29.2766 12.204C28.8686 11.82 28.3526 11.628 27.7286 11.628C27.1046 11.628 26.5766 11.82 26.1446 12.204C25.7366 12.588 25.5326 13.068 25.5326 13.644C25.5326 14.268 25.7246 14.772 26.1086 15.156C26.5166 15.54 27.0446 15.732 27.6926 15.732C29.0606 15.78 30.2606 16.08 31.2926 16.632C32.3246 17.16 33.1166 17.88 33.6686 18.792C34.2206 19.68 34.4966 20.664 34.4966 21.744C34.4966 22.8 34.2206 23.772 33.6686 24.66C33.1166 25.548 32.3246 26.256 31.2926 26.784C30.2606 27.312 29.0606 27.576 27.6926 27.576ZM38.1888 5.904H33.9408V1.584H46.7568V5.904H42.5088V27H38.1888V5.904ZM53.7616 1.584V8.964C54.8416 8.46 55.9696 8.208 57.1456 8.208C58.5616 8.208 59.8456 8.544 60.9976 9.216C62.1736 9.888 63.0976 10.812 63.7696 11.988C64.4656 13.164 64.8136 14.46 64.8136 15.876V27.036H60.4936V15.876C60.4936 14.94 60.1696 14.148 59.5216 13.5C58.8976 12.852 58.1056 12.528 57.1456 12.528C56.1856 12.528 55.3816 12.852 54.7336 13.5C54.0856 14.124 53.7616 14.916 53.7616 15.876V27.036H49.4416V1.584H53.7616ZM77.0385 27.288C75.3105 27.288 73.7145 26.868 72.2505 26.028C70.7865 25.164 69.6225 24 68.7585 22.536C67.9185 21.072 67.4985 19.476 67.4985 17.748C67.4985 16.02 67.9185 14.436 68.7585 12.996C69.6225 11.532 70.7865 10.38 72.2505 9.54C73.7145 8.676 75.3105 8.244 77.0385 8.244C78.2865 8.244 79.4745 8.484 80.6025 8.964C81.7545 9.42 82.7625 10.068 83.6265 10.908V8.532H86.5065V16.92L86.5425 17.748L86.5065 18.576V27H83.6265V24.624C82.7625 25.464 81.7545 26.124 80.6025 26.604C79.4745 27.06 78.2865 27.288 77.0385 27.288ZM77.0385 22.968C77.9745 22.968 78.8385 22.74 79.6305 22.284C80.4225 21.804 81.0465 21.168 81.5025 20.376C81.9825 19.56 82.2225 18.684 82.2225 17.748C82.2225 16.812 81.9825 15.948 81.5025 15.156C81.0465 14.364 80.4225 13.74 79.6305 13.284C78.8385 12.804 77.9745 12.564 77.0385 12.564C76.1025 12.564 75.2265 12.804 74.4105 13.284C73.6185 13.74 72.9825 14.364 72.5025 15.156C72.0465 15.948 71.8185 16.812 71.8185 17.748C71.8185 18.684 72.0465 19.56 72.5025 20.376C72.9825 21.168 73.6185 21.804 74.4105 22.284C75.2265 22.74 76.1025 22.968 77.0385 22.968ZM93.4103 12.852H89.2343V8.532H93.4103V5.832L97.6943 2.844L97.7303 2.88V8.532H102.518V12.852H97.7303V27H93.4103V12.852ZM111.894 27.648C110.406 27.648 109.062 27.312 107.862 26.64C106.686 25.968 105.762 25.044 105.09 23.868C104.418 22.668 104.082 21.348 104.082 19.908V19.368H108.474V19.872C108.474 20.832 108.798 21.636 109.446 22.284C110.118 22.932 110.922 23.256 111.858 23.256C112.794 23.256 113.586 22.932 114.234 22.284C114.882 21.636 115.206 20.844 115.206 19.908C115.206 18.924 114.882 18.108 114.234 17.46C113.586 16.812 112.794 16.488 111.858 16.488C110.442 16.488 109.146 16.152 107.97 15.48C106.794 14.784 105.858 13.836 105.162 12.636C104.49 11.436 104.154 10.104 104.154 8.64C104.154 7.2 104.49 5.904 105.162 4.752C105.858 3.576 106.794 2.652 107.97 1.98C109.146 1.308 110.442 0.971998 111.858 0.971998C113.346 0.971998 114.678 1.308 115.854 1.98C117.054 2.652 117.99 3.576 118.662 4.752C119.358 5.904 119.706 7.2 119.706 8.64V9.18H115.314V8.676C115.314 7.764 114.978 6.996 114.306 6.372C113.658 5.724 112.854 5.4 111.894 5.4C110.982 5.4 110.202 5.724 109.554 6.372C108.906 6.996 108.582 7.764 108.582 8.676C108.582 9.636 108.906 10.452 109.554 11.124C110.202 11.772 110.982 12.096 111.894 12.096C113.31 12.096 114.606 12.444 115.782 13.14C116.982 13.812 117.918 14.748 118.59 15.948C119.286 17.124 119.634 18.444 119.634 19.908C119.634 21.348 119.286 22.656 118.59 23.832C117.918 25.008 116.982 25.944 115.782 26.64C114.606 27.312 113.31 27.648 111.894 27.648ZM126.639 9.72V27H122.319V9.72H126.639ZM124.551 7.236C123.783 7.236 123.123 6.972 122.571 6.444C122.043 5.892 121.779 5.22 121.779 4.428C121.779 3.708 122.055 3.084 122.607 2.556C123.159 2.004 123.807 1.728 124.551 1.728C125.295 1.728 125.931 2.004 126.459 2.556C127.011 3.084 127.287 3.708 127.287 4.428C127.287 5.22 127.023 5.892 126.495 6.444C125.967 6.972 125.319 7.236 124.551 7.236ZM135.861 14.904L133.845 26.964H129.597L132.585 8.532H137.409L143.169 19.908L148.893 8.532H153.717L156.741 26.964H152.457L150.477 14.904L143.205 28.332H143.133L135.861 14.904ZM169.393 27.288C167.521 27.288 165.781 26.772 164.173 25.74V34.2H159.853V8.532H162.733V10.944C163.621 10.104 164.629 9.444 165.757 8.964C166.909 8.484 168.121 8.244 169.393 8.244C171.121 8.244 172.705 8.676 174.145 9.54C175.609 10.38 176.761 11.532 177.601 12.996C178.465 14.436 178.897 16.02 178.897 17.748C178.897 19.476 178.465 21.072 177.601 22.536C176.761 24 175.609 25.164 174.145 26.028C172.705 26.868 171.121 27.288 169.393 27.288ZM169.393 22.968C170.329 22.968 171.193 22.74 171.985 22.284C172.777 21.804 173.401 21.168 173.857 20.376C174.337 19.56 174.577 18.684 174.577 17.748C174.577 16.812 174.337 15.948 173.857 15.156C173.401 14.364 172.777 13.74 171.985 13.284C171.193 12.804 170.329 12.564 169.393 12.564C168.457 12.564 167.581 12.804 166.765 13.284C165.973 13.74 165.337 14.364 164.857 15.156C164.401 15.948 164.173 16.812 164.173 17.748C164.173 18.684 164.401 19.56 164.857 20.376C165.337 21.168 165.973 21.804 166.765 22.284C167.581 22.74 168.457 22.968 169.393 22.968ZM181.589 1.584H185.909V27H181.589V1.584ZM198.111 27.288C196.383 27.288 194.787 26.868 193.323 26.028C191.859 25.164 190.695 24 189.831 22.536C188.991 21.072 188.571 19.476 188.571 17.748C188.571 16.02 188.991 14.436 189.831 12.996C190.695 11.532 191.859 10.38 193.323 9.54C194.787 8.676 196.383 8.244 198.111 8.244C199.863 8.244 201.459 8.676 202.899 9.54C204.339 10.38 205.479 11.532 206.319 12.996C207.159 14.46 207.579 16.068 207.579 17.82C207.579 18.276 207.567 18.624 207.543 18.864H192.891C193.155 20.088 193.779 21.096 194.763 21.888C195.747 22.68 196.863 23.076 198.111 23.076C198.999 23.076 199.803 22.872 200.523 22.464C201.267 22.032 201.855 21.456 202.287 20.736H207.147C206.499 22.656 205.347 24.228 203.691 25.452C202.059 26.676 200.199 27.288 198.111 27.288ZM203.115 16.2C202.803 15.12 202.179 14.232 201.243 13.536C200.331 12.816 199.287 12.456 198.111 12.456C196.935 12.456 195.879 12.816 194.943 13.536C194.007 14.232 193.371 15.12 193.035 16.2H203.115Z" fill="#010100"/>
</svg>
