<svg xmlns="http://www.w3.org/2000/svg" width="23" height="22" viewBox="0 0 23 22" fill="none">
              <path d="M17.7033 10.294C17.8946 10.294 18.078 10.37 18.2133 10.5053C18.3485 10.6405 18.4245 10.824 18.4245 11.0152C18.4245 11.2065 18.3485 11.39 18.2133 11.5252C18.078 11.6605 17.8946 11.7365 17.7033 11.7365L12.3154 11.7356L12.3146 17.1235C12.3146 17.3148 12.2386 17.4982 12.1033 17.6335C11.9681 17.7687 11.7846 17.8447 11.5933 17.8447C11.4021 17.8447 11.2186 17.7687 11.0834 17.6335C10.9481 17.4982 10.8721 17.3148 10.8721 17.1235L10.873 11.7356L5.48509 11.7348C5.29381 11.7348 5.11037 11.6588 4.97511 11.5235C4.83986 11.3883 4.76388 11.2048 4.76388 11.0136C4.76388 10.8223 4.83986 10.6388 4.97511 10.5036C5.11037 10.3683 5.29381 10.2923 5.48509 10.2923L10.873 10.2932L10.8726 4.90403C10.8726 4.71275 10.9485 4.52931 11.0838 4.39405C11.219 4.2588 11.4025 4.18281 11.5938 4.18281C11.785 4.18281 11.9685 4.2588 12.1037 4.39405C12.239 4.52931 12.315 4.71275 12.315 4.90403L12.3154 10.2932L17.7033 10.294Z" fill="white" />
            </svg>