<svg xmlns="http://www.w3.org/2000/svg" width="28" height="29" viewBox="0 0 28 29" fill="none">
  <path d="M25.1188 24.4077L19.6424 18.9324C21.2297 17.0267 22.0212 14.5825 21.8523 12.1082C21.6833 9.63382 20.567 7.31986 18.7354 5.64765C16.9039 3.97543 14.4981 3.0737 12.0187 3.13005C9.5392 3.1864 7.17691 4.19649 5.42321 5.95019C3.66951 7.70389 2.65943 10.0662 2.60308 12.5456C2.54673 15.0251 3.44845 17.4308 5.12067 19.2624C6.79288 21.094 9.10685 22.2103 11.5812 22.3792C14.0555 22.5482 16.4998 21.7567 18.4054 20.1694L23.8807 25.6458C23.962 25.7271 24.0585 25.7916 24.1647 25.8356C24.2709 25.8796 24.3848 25.9022 24.4998 25.9022C24.6147 25.9022 24.7286 25.8796 24.8348 25.8356C24.941 25.7916 25.0375 25.7271 25.1188 25.6458C25.2001 25.5645 25.2646 25.468 25.3086 25.3618C25.3526 25.2556 25.3752 25.1417 25.3752 25.0267C25.3752 24.9118 25.3526 24.7979 25.3086 24.6917C25.2646 24.5855 25.2001 24.489 25.1188 24.4077ZM4.37476 12.7767C4.37476 11.2192 4.83662 9.69666 5.70194 8.40162C6.56725 7.10659 7.79716 6.09723 9.23613 5.50119C10.6751 4.90515 12.2585 4.7492 13.7861 5.05305C15.3137 5.35691 16.7169 6.10693 17.8182 7.20827C18.9196 8.30961 19.6696 9.7128 19.9734 11.2404C20.2773 12.768 20.1214 14.3514 19.5253 15.7904C18.9293 17.2293 17.9199 18.4592 16.6249 19.3246C15.3298 20.1899 13.8073 20.6517 12.2498 20.6517C10.1619 20.6494 8.1602 19.819 6.68385 18.3426C5.20751 16.8663 4.37708 14.8646 4.37476 12.7767Z" fill="#8B8B8B"/>
</svg>